<svg width="188" viewBox="0 0 188 80" fill="none" xmlns="http://www.w3.org/2000/svg">
<g clip-path="url(#clip0_2997_1505)">
<path d="M39.7397 80.0083C61.6873 80.0083 79.4794 62.0978 79.4794 40.0041C79.4794 17.9105 61.6873 0 39.7397 0C17.7921 0 0 17.9105 0 40.0041C0 62.0978 17.7921 80.0083 39.7397 80.0083Z" fill="white"/>
<path d="M99.2952 28.2036H98.254V33.3271H95.4113V28.2036H94.3701V34.36H98.725V35.0789H99.7663V33.3188H99.2952V28.2036Z" fill="white"/>
<path d="M109.096 28.1128C107.575 28.1128 106.014 29.2945 106.014 31.286C106.014 33.3767 107.625 34.4675 109.212 34.4675C110.269 34.4675 111.071 34.1039 111.608 33.3932L111.831 33.0957L111.021 32.476L110.79 32.7735C110.459 33.2114 109.922 33.4346 109.195 33.4346C108.294 33.4346 107.336 32.9222 107.104 31.7984H112.12L112.145 31.443C112.203 30.5175 111.93 29.7077 111.352 29.0962C110.782 28.4847 109.939 28.1128 109.096 28.1128ZM109.096 29.1457C109.774 29.1457 110.873 29.592 111.079 30.7654H107.121C107.344 29.6994 108.261 29.1457 109.096 29.1457Z" fill="white"/>
<path d="M121.648 28.1128C120.896 28.1128 120.21 28.3607 119.69 28.8317V28.212H118.648V36.3351H119.69V33.7568C120.219 34.2196 120.896 34.4675 121.648 34.4675C123.144 34.4675 124.764 33.2528 124.764 31.3025C124.764 29.1044 122.937 28.1128 121.648 28.1128ZM123.714 31.2943C123.714 32.7652 122.508 33.4346 121.648 33.4346C120.698 33.4346 119.673 32.7652 119.673 31.2943C119.673 29.8151 120.698 29.1457 121.648 29.1457C122.508 29.1457 123.714 29.8151 123.714 31.2943Z" fill="white"/>
<path d="M136.35 28.2036H134.903L132.292 30.8232V28.2036H131.251V34.36H132.292V32.2363L132.763 31.7735L135.317 34.36H136.779L133.474 31.0546L136.35 28.2036Z" fill="white"/>
<path d="M146.877 30.9389C147.125 30.6662 147.265 30.3026 147.265 29.9307C147.265 28.8482 146.48 28.2036 145.158 28.2036H142.571V34.3517H145.158C147.24 34.3517 147.67 33.3271 147.67 32.4594C147.678 31.8148 147.397 31.2859 146.877 30.9389ZM146.24 29.8729C146.24 30.096 146.24 30.5009 145.191 30.5009H143.613V29.2531H145.158C145.877 29.2531 146.24 29.4597 146.24 29.8729ZM143.613 31.5338H145.191C146.637 31.5338 146.637 32.2528 146.637 32.4842C146.637 32.7734 146.637 33.3105 145.166 33.3105H143.621V31.5338H143.613Z" fill="white"/>
<path d="M158.959 28.2037V28.8234C158.43 28.3607 157.752 28.1045 157 28.1045C155.703 28.1045 153.885 29.0879 153.885 31.286C153.885 33.2445 155.504 34.4509 157 34.4509C157.752 34.4509 158.43 34.203 158.959 33.7403V34.3435H160V28.1954H158.959V28.2037ZM154.934 31.2942C154.934 29.8151 156.141 29.1457 157 29.1457C157.95 29.1457 158.975 29.8151 158.975 31.2942C158.975 32.7652 157.95 33.4345 157 33.4345C156.141 33.4345 154.934 32.7652 154.934 31.2942Z" fill="white"/>
<path d="M66.7531 79.3058C68.1086 79.3058 69.2074 78.207 69.2074 76.8515C69.2074 75.496 68.1086 74.3972 66.7531 74.3972C65.3977 74.3972 64.2988 75.496 64.2988 76.8515C64.2988 78.207 65.3977 79.3058 66.7531 79.3058Z" fill="url(#paint0_linear_2997_1505)"/>
<path d="M76.6284 44.0202L79.3141 43.6649C79.6694 39.7727 79.4628 35.7566 78.6282 31.7322C77.6283 26.9476 75.8103 22.5514 73.3643 18.6427C73.2816 18.5187 73.2073 18.3948 73.1246 18.2708C72.8271 17.8163 72.5214 17.3618 72.2156 16.9238C72.0752 16.7255 71.9429 16.5272 71.8025 16.3371C71.5545 15.9901 71.2901 15.6595 71.0257 15.3207C70.8687 15.1141 70.7117 14.9075 70.5464 14.7009L63.3818 26.5509C69.8936 30.4018 74.703 36.6491 76.6284 44.0202Z" fill="url(#paint1_linear_2997_1505)"/>
<path d="M39.624 49.8296V64.076L48.9619 48.6066L39.624 49.8296Z" fill="url(#paint2_linear_2997_1505)"/>
<path d="M48.2179 22.4522C53.4571 22.4522 58.3409 23.7744 62.5553 26.0882L69.8934 13.9324C69.6951 13.701 69.4967 13.4614 69.2901 13.23C69.224 13.1556 69.1497 13.073 69.0753 12.9986C67.406 11.1724 65.5798 9.49487 63.6048 8.00742C63.5717 7.98263 63.5304 7.94957 63.4973 7.92478C63.1751 7.67687 62.8363 7.44549 62.5057 7.21411L41.6318 22.4522H48.2179Z" fill="url(#paint3_linear_2997_1505)"/>
<path d="M27.5674 31.5422V22.4522H40.0124L61.6631 6.63568C55.3745 2.44603 47.8463 0 39.7397 0C36.8144 0 33.9635 0.330544 31.2117 0.933788C30.5093 1.0908 29.8069 1.26433 29.121 1.4544C29.0962 1.46266 29.0714 1.47092 29.0466 1.47919L16.7256 39.4587L27.5674 31.5422Z" fill="url(#paint4_linear_2997_1505)"/>
<path d="M27.9393 1.79321C11.8748 6.89186 0.198327 21.9316 0.00826361 39.7397C0.00826361 39.9794 0 40.2107 0 40.4504C0 40.5909 0.00826361 40.7396 0.00826361 40.8801C0.0661089 43.2931 0.338808 45.7391 0.851152 48.1934C1.02469 49.0115 1.22301 49.8213 1.44613 50.6146L15.4116 40.4091L27.9393 1.79321Z" fill="url(#paint5_linear_2997_1505)"/>
<path d="M14.908 41.9708L1.72754 51.5979C1.94239 52.3251 2.18204 53.0358 2.43821 53.7382L11.4786 52.5565L14.908 41.9708Z" fill="url(#paint6_linear_2997_1505)"/>
<path d="M64.3735 45.6234C63.2497 41.7726 60.9193 38.4754 57.4652 36.3682L50.8047 47.4001L64.3735 45.6234Z" fill="url(#paint7_linear_2997_1505)"/>
<path d="M56.6305 35.8972C54.2671 34.6494 51.4327 33.9304 48.1355 33.9304H39.624V48.8628L49.5899 47.5571L56.6305 35.8972Z" fill="url(#paint8_linear_2997_1505)"/>
<path d="M12.5195 52.4161L27.5676 50.4493V32.7239L16.2216 41.0123L12.5195 52.4161Z" fill="url(#paint9_linear_2997_1505)"/>
<path d="M50.1684 48.4495L39.624 65.9188V69.2077H48.1355C59.2088 69.2077 65.1586 61.1424 65.1586 51.2343C65.1586 49.6229 64.9768 48.0528 64.6214 46.5571L50.1684 48.4495Z" fill="url(#paint10_linear_2997_1505)"/>
<path d="M77.554 51.2344C77.554 51.6063 77.5374 51.9699 77.5292 52.3335C78.3307 49.8544 78.9009 47.2761 79.2067 44.6483L76.8516 44.9541C77.3061 46.9787 77.554 49.0776 77.554 51.2344Z" fill="url(#paint11_linear_2997_1505)"/>
<path d="M2.78516 54.6555C4.08254 57.9692 5.78485 61.0267 7.82596 63.795L11.1479 53.5564L2.78516 54.6555Z" fill="url(#paint12_linear_2997_1505)"/>
<path d="M8.52832 64.7288C13.4204 70.9761 20.0726 75.612 27.5677 78.0497V51.4161L12.1974 53.4325L8.52832 64.7288Z" fill="url(#paint13_linear_2997_1505)"/>
<path d="M104.461 47.9124C104.461 52.1434 101.196 55.4736 96.858 55.4736H91.999V40.4338H96.858C101.196 40.4338 104.461 43.7641 104.461 47.9124ZM102.056 47.9124C102.056 45.0532 100.122 42.6733 96.8332 42.6733H94.3624V53.2424H96.8332C100.122 53.2424 102.056 50.8625 102.056 47.9124Z" fill="white"/>
<path d="M117.179 51.0938L116.344 51.9285V55.4735H114.022V51.9285L113.187 51.0938L108.824 55.4735H105.75L111.658 49.5237L106.502 44.3011H109.469L114.022 48.8131V44.3011H116.344V48.8131L120.897 44.3011H123.864L118.707 49.5237L124.616 55.4735H121.542L117.179 51.0938Z" fill="white"/>
<path d="M134.863 50.7302H125.963C126.31 52.73 127.896 53.7134 129.698 53.7134C131.177 53.7134 131.979 53.325 132.788 52.6804L134.102 53.9283C133.111 55.0438 131.698 55.6884 129.632 55.6884C126.797 55.6884 123.641 53.7547 123.641 49.9121C123.641 46.0448 126.888 44.1111 129.417 44.1111C131.962 44.1111 135.4 46.0448 134.863 50.7302ZM125.987 49.0279H132.822C132.565 47.0695 130.863 46.1026 129.425 46.1026C127.987 46.1109 126.376 47.0777 125.987 49.0279Z" fill="white"/>
<path d="M148.381 49.8873C148.381 53.796 145.349 55.6884 142.82 55.6884C140.804 55.6884 139.465 54.5315 139.192 53.6225V59.5558H136.87V52.7466V44.3011H139.192V46.0448C139.473 45.3176 140.804 44.1111 142.82 44.1111C145.349 44.1111 148.381 46.0448 148.381 49.8873ZM146.117 49.8873C146.117 47.4165 144.25 46.1687 142.506 46.1687C140.762 46.1687 139.068 47.3917 139.068 49.8873C139.068 52.3995 140.762 53.6225 142.506 53.6225C144.25 53.6308 146.117 52.383 146.117 49.8873Z" fill="white"/>
<path d="M160.992 50.7302H152.092C152.439 52.73 154.025 53.7134 155.827 53.7134C157.306 53.7134 158.108 53.325 158.917 52.6804L160.231 53.9283C159.24 55.0438 157.827 55.6884 155.761 55.6884C152.926 55.6884 149.77 53.7547 149.77 49.9121C149.77 46.0448 153.017 44.1111 155.546 44.1111C158.091 44.1111 161.529 46.0448 160.992 50.7302ZM152.116 49.0279H158.95C158.694 47.0695 156.992 46.1026 155.554 46.1026C154.116 46.1026 152.505 47.0777 152.116 49.0279Z" fill="white"/>
<path d="M187.039 49.9121C187.039 53.8043 183.791 55.6884 181.263 55.6884C178.726 55.6884 175.486 53.796 175.486 49.9121C175.486 46.0448 178.734 44.1111 181.263 44.1111C183.791 44.1111 187.039 46.0448 187.039 49.9121ZM177.734 49.9121C177.734 52.383 179.626 53.6308 181.254 53.6308C182.891 53.6308 184.775 52.383 184.775 49.9121C184.775 47.4165 182.882 46.177 181.254 46.177C179.626 46.177 177.734 47.4165 177.734 49.9121Z" fill="white"/>
<path d="M105.841 68.8194L103.799 71.1001V75.5873H101.37V71.1001L99.3289 68.8194L93.9989 75.5873H91.2471L97.8414 67.1832L91.8668 60.5475H94.7922L101.37 67.9351V60.5475H103.799V67.9351L110.377 60.5475H113.303L107.328 67.1832L113.922 75.5873H111.171L105.841 68.8194Z" fill="white"/>
<path d="M125.797 75.5872H123.475V68.6706L115.98 75.5872H115.633V64.4148H117.955V71.3314L125.45 64.4148H125.797V75.5872Z" fill="white"/>
<path d="M136.176 66.4559H133.06V75.5872H130.738V66.4559H127.623V64.4148H133.06H136.176V66.4559Z" fill="white"/>
<path d="M146.01 66.4559H142.894V75.5872H140.572V66.4559H137.457V64.4148H142.894H146.01V66.4559Z" fill="white"/>
<path d="M157.314 75.5872H154.992V71.9595H152.695L149.34 75.5872H146.654L150.175 71.7611C148.348 71.2901 147.142 70.001 147.142 68.1747C147.142 65.894 149.051 64.4148 151.761 64.4148H157.306V75.5872H157.314ZM154.992 66.4559H151.769C150.117 66.4559 149.406 67.2079 149.406 68.1747C149.406 69.1664 150.117 69.9184 151.769 69.9184H154.992V66.4559Z" fill="white"/>
<path d="M168.967 44.3011H168.859H168.81C166.141 44.3011 164.248 45.7555 164.232 47.995H164.223V52.6143C164.223 53.2176 163.984 53.5647 163.298 53.5564C162.314 53.5481 163.298 53.5564 162.314 53.5481V55.5975C163.901 55.5975 162.992 55.5975 163.901 55.5975C165.339 55.5975 166.545 55.0852 166.545 52.5896V48.0446C166.545 48.0363 166.545 48.0363 166.545 48.028V48.0198C166.545 47.0612 167.173 46.3423 168.81 46.3423H171.214V55.4735H173.536V44.3011H168.967Z" fill="white"/>
</g>
<defs>
<linearGradient id="paint0_linear_2997_1505" x1="66.753" y1="74.397" x2="66.753" y2="79.3082" gradientUnits="userSpaceOnUse">
<stop stop-color="#478C86"/>
<stop offset="1" stop-color="#C3E4D7"/>
</linearGradient>
<linearGradient id="paint1_linear_2997_1505" x1="71.4343" y1="80.1514" x2="71.4343" y2="-0.00012239" gradientUnits="userSpaceOnUse">
<stop stop-color="#478C86"/>
<stop offset="1" stop-color="#C3E4D7"/>
</linearGradient>
<linearGradient id="paint2_linear_2997_1505" x1="44.2944" y1="80.1514" x2="44.2944" y2="7.09067e-06" gradientUnits="userSpaceOnUse">
<stop stop-color="#478C86"/>
<stop offset="1" stop-color="#C3E4D7"/>
</linearGradient>
<linearGradient id="paint3_linear_2997_1505" x1="55.7604" y1="80.1514" x2="55.7604" y2="-1.2504e-05" gradientUnits="userSpaceOnUse">
<stop stop-color="#478C86"/>
<stop offset="1" stop-color="#C3E4D7"/>
</linearGradient>
<linearGradient id="paint4_linear_2997_1505" x1="39.1963" y1="80.1513" x2="39.1963" y2="0" gradientUnits="userSpaceOnUse">
<stop stop-color="#478C86"/>
<stop offset="1" stop-color="#C3E4D7"/>
</linearGradient>
<linearGradient id="paint5_linear_2997_1505" x1="13.9699" y1="80.1515" x2="13.9699" y2="-8.12082e-05" gradientUnits="userSpaceOnUse">
<stop stop-color="#478C86"/>
<stop offset="1" stop-color="#C3E4D7"/>
</linearGradient>
<linearGradient id="paint6_linear_2997_1505" x1="8.31937" y1="80.1514" x2="8.31937" y2="5.93306e-05" gradientUnits="userSpaceOnUse">
<stop stop-color="#478C86"/>
<stop offset="1" stop-color="#C3E4D7"/>
</linearGradient>
<linearGradient id="paint7_linear_2997_1505" x1="57.587" y1="80.1515" x2="57.587" y2="4.00164e-05" gradientUnits="userSpaceOnUse">
<stop stop-color="#478C86"/>
<stop offset="1" stop-color="#C3E4D7"/>
</linearGradient>
<linearGradient id="paint8_linear_2997_1505" x1="48.1302" y1="80.1516" x2="48.1302" y2="0.000183633" gradientUnits="userSpaceOnUse">
<stop stop-color="#478C86"/>
<stop offset="1" stop-color="#C3E4D7"/>
</linearGradient>
<linearGradient id="paint9_linear_2997_1505" x1="20.0439" y1="80.1514" x2="20.0439" y2="2.95278e-05" gradientUnits="userSpaceOnUse">
<stop stop-color="#478C86"/>
<stop offset="1" stop-color="#C3E4D7"/>
</linearGradient>
<linearGradient id="paint10_linear_2997_1505" x1="52.392" y1="80.1514" x2="52.392" y2="4.07032e-05" gradientUnits="userSpaceOnUse">
<stop stop-color="#478C86"/>
<stop offset="1" stop-color="#C3E4D7"/>
</linearGradient>
<linearGradient id="paint11_linear_2997_1505" x1="78.0241" y1="80.1515" x2="78.0241" y2="-0.000253304" gradientUnits="userSpaceOnUse">
<stop stop-color="#478C86"/>
<stop offset="1" stop-color="#C3E4D7"/>
</linearGradient>
<linearGradient id="paint12_linear_2997_1505" x1="6.96734" y1="80.1514" x2="6.96734" y2="-5.83329e-05" gradientUnits="userSpaceOnUse">
<stop stop-color="#478C86"/>
<stop offset="1" stop-color="#C3E4D7"/>
</linearGradient>
<linearGradient id="paint13_linear_2997_1505" x1="18.0473" y1="80.1514" x2="18.0473" y2="-8.92415e-05" gradientUnits="userSpaceOnUse">
<stop stop-color="#478C86"/>
<stop offset="1" stop-color="#C3E4D7"/>
</linearGradient>
<clipPath id="clip0_2997_1505">
<rect width="187.039" height="80" fill="white"/>
</clipPath>
</defs>
</svg>
